#tb 0: 1/25
#media_type 0: video
#codec_id 0: rawvideo
#dimensions 0: 352x512
#sar 0: 1/1
0,          0,          0,        1,   180224, 0x5f5578e1
0,          1,          1,        1,   180224, 0x8ed378e1
0,          2,          2,        1,   180224, 0x078478e1
0,          3,          3,        1,   180224, 0xebe178e1
0,          4,          4,        1,   180224, 0xec4278e1
0,          5,          5,        1,   180224, 0xf9f278e1
0,          6,          6,        1,   180224, 0x551c78e1
0,          7,          7,        1,   180224, 0x7dd078e1
0,          8,          8,        1,   180224, 0xff1e78e1
0,          9,          9,        1,   180224, 0x432e78e1
0,         10,         10,        1,   180224, 0xb8c878e1
0,         11,         11,        1,   180224, 0x592578e1
0,         12,         12,        1,   180224, 0x2cda78e1
0,         13,         13,        1,   180224, 0x3ce278e1
0,         14,         14,        1,   180224, 0x288878e1
0,         15,         15,        1,   180224, 0x8ddc78e1
0,         16,         16,        1,   180224, 0xfd1778e1
0,         17,         17,        1,   180224, 0x4c8278e1
0,         18,         18,        1,   180224, 0x639678e1
0,         19,         19,        1,   180224, 0x49f978e1
0,         20,         20,        1,   180224, 0xd9ee78e1
0,         21,         21,        1,   180224, 0xa20478e1
0,         22,         22,        1,   180224, 0x06a278e1
0,         23,         23,        1,   180224, 0xacc378e1
0,         24,         24,        1,   180224, 0x77dc78e1
0,         25,         25,        1,   180224, 0x543a78e1
0,         26,         26,        1,   180224, 0x1d6578e1
0,         27,         27,        1,   180224, 0x8b8778e1
0,         28,         28,        1,   180224, 0x8ca078e1
0,         29,         29,        1,   180224, 0x750578e1
0,         30,         30,        1,   180224, 0x8c5178e1
0,         31,         31,        1,   180224, 0x293278e1
0,         32,         32,        1,   180224, 0x787178e1
0,         33,         33,        1,   180224, 0xb54478e1
0,         34,         34,        1,   180224, 0x44f778e1
0,         35,         35,        1,   180224, 0x54d678e1
0,         36,         36,        1,   180224, 0x99bc78e1
0,         37,         37,        1,   180224, 0x162078e1
0,         38,         38,        1,   180224, 0xb46f78e1
0,         39,         39,        1,   180224, 0x857378e1
0,         40,         40,        1,   180224, 0xf74978e1
0,         41,         41,        1,   180224, 0xff7678e1
0,         42,         42,        1,   180224, 0x13da78e1
0,         43,         43,        1,   180224, 0xc2af78e1
0,         44,         44,        1,   180224, 0x869578e1
0,         45,         45,        1,   180224, 0x748678e1
0,         46,         46,        1,   180224, 0xf56478e1
0,         47,         47,        1,   180224, 0x979e78e1
0,         48,         48,        1,   180224, 0x13b378e1
0,         49,         49,        1,   180224, 0x801e78e1
